<?xml version="1.0" encoding="utf-8"?>
<!-- Generator: Adobe Illustrator 19.0.0, SVG Export Plug-In . SVG Version: 6.00 Build 0)  -->
<svg version="1.1" id="Layer_1" xmlns="http://www.w3.org/2000/svg" xmlns:xlink="http://www.w3.org/1999/xlink" x="0px" y="0px"
	 viewBox="0 0 320.3 80.3" enable-background="new 0 0 320.3 80.3" xml:space="preserve">
<g id="XMLID_1_">
	<g id="XMLID_31_">
		<path id="XMLID_42_" fill="#6BC289" d="M153.1,59.6c-1.9,1.5-4.7,2.1-7.2,2.1c-5.5,0-9.1-5-9.1-10.2V1.7h9.5v48.6
			c0,1.9,1.5,3,3.3,3c1.3,0,2.5-0.5,3.4-1.3V59.6z"/>
		<path id="XMLID_40_" fill="#6BC289" d="M194.6,59.6c-2,1.5-4.8,2.1-7.2,2.1c-3.7,0-6.7-2.3-8.2-5.5c-1.6,3.7-5.3,5.6-9.2,5.6
			c-6.5,0-11.1-5.4-11.1-11.7V29.2h9.5v19.9c0,2.5,1.3,4.7,4.1,4.7c2.8,0,4.4-1.8,5.3-4.3c0.1-0.2,0.4-1.4,0.4-1.6V29.2h9.5v21
			c0,1.9,1.6,3,3.3,3c1.3,0,2.5-0.5,3.5-1.3V59.6z"/>
		<path id="XMLID_37_" fill="#6BC289" d="M232.8,67c0,6.2-4.5,13.4-11.4,13.4l-3.6-7.9c2.8,0,5.4-2.6,5.4-5.4v-9.9
			c-2.5,3.2-6,4.6-10,4.6c-9.4,0-15.4-7.6-15.4-16.6c0-8.9,6-16.5,15.4-16.5c4,0,7.5,1.4,10,4.6v-3.9h9.5V67z M223.3,42.4
			c0-0.2-0.5-1.3-0.6-1.4c-1.3-2.7-4.1-4.5-7.2-4.5c-4.7,0-8.2,4.1-8.2,8.7c0,4.6,3.5,8.7,8.2,8.7c3.1,0,5.8-1.8,7.2-4.5
			c0.1-0.2,0.6-1.2,0.6-1.4V42.4z"/>
		<path id="XMLID_35_" fill="#6BC289" d="M272,36.5l-13.7,13.6h0.3c7.9,0,13.3,6.8,13.3,14.4c0,7.2-5.6,15.7-13.2,15.9l-3.6-8.1
			c4.3,0,7.8-3.5,7.8-7.8c0-4.3-3.5-7.8-7.8-7.8c-2.6,0-5.1,1.3-6.8,3.3l-6.3-6.3l16.2-15.6H242v-8.9h27.1L272,36.5z"/>
		<path id="XMLID_32_" fill="#6BC289" d="M320.3,59.6c-2,1.5-4.8,2.1-7.3,2.1c-3.7,0-6.7-2.3-8.2-5.7c-2.4,3.8-6.3,5.7-10.8,5.7
			c-9.4,0-15.4-7.6-15.4-16.6c0-8.9,6-16.5,15.4-16.5c3.9,0,7.3,1.3,9.9,4.3v-3.7h9.5v21c0,1.9,1.5,3,3.3,3c1.3,0,2.5-0.5,3.5-1.3
			V59.6z M303.9,41.9c-1.2-3.2-4.2-5.4-7.6-5.4c-4.7,0-8.2,4.1-8.2,8.7c0,4.6,3.5,8.7,8.2,8.7c3.4,0,6.4-2.3,7.6-5.4V41.9z"/>
	</g>
	<g id="XMLID_17_">
		<g id="XMLID_18_">
			<path id="XMLID_28_" fill="#FFFFFF" d="M47.7,33.3c-1.9-1.6-4.4-2.6-7.1-2.6c-6.2,0-11.3,5.1-11.3,11.3c0,0.7,0.1,1.4,0.2,2.1
				c-4.9,1.6-8.4,6.2-8.4,11.6C21,62.6,26.5,68,33.2,68c0.6,0,1.2,0,1.7-0.1h19.8V27.6C51.8,28.6,49.3,30.7,47.7,33.3z M48.9,49.7
				C48.9,49.7,48.9,49.7,48.9,49.7c0.1,0,0.1,0,0.1,0H48.9z"/>
			<path id="XMLID_27_" fill="#6BC289" d="M73.5,40.1c-0.3-7.5-6.4-13.4-13.9-13.4c-1.7,0-3.2,0.3-4.7,0.8c0,0,0,0-0.1,0v40.3h0.1
				h16.6c0.5,0.1,1,0.1,1.5,0.1c7.7,0,13.9-6.2,13.9-13.9C86.9,46.5,80.9,40.4,73.5,40.1z"/>
			<path id="XMLID_26_" fill="#FFFFFF" d="M33.4,8.5C33.2,3.8,29.3,0,24.5,0c-1.1,0-2.1,0.2-3,0.5c-0.3,0.1-0.6,0.2-0.8,0.4v25.4
				h0.8h10.6c0.3,0,0.6,0.1,1,0.1c4.9,0,8.9-4,8.9-8.9C42,12.6,38.2,8.7,33.4,8.5z"/>
			<path id="XMLID_23_" fill="#6BC289" d="M17,4.2c-1.2-1-2.8-1.6-4.6-1.6c-4,0-7.2,3.2-7.2,7.2c0,0.5,0,0.9,0.1,1.4
				c-3.1,1-5.4,3.9-5.4,7.4c0,4.3,3.5,7.8,7.8,7.8c0.4,0,0.7,0,1.1-0.1h11.8V0.9C19.2,1.6,17.9,2.8,17,4.2z M17.7,14.6
				C17.7,14.6,17.8,14.6,17.7,14.6C17.8,14.6,17.8,14.6,17.7,14.6L17.7,14.6z"/>
			<path id="XMLID_22_" fill="#6BC289" d="M108.1,19.1c-0.1-2.9-2.5-5.3-5.5-5.3c-0.7,0-1.3,0.1-1.9,0.3c-0.1,0-0.2,0.1-0.3,0.1
				v15.8h0.3h6.5c0.2,0,0.4,0,0.6,0c3,0,5.5-2.5,5.5-5.5C113.4,21.7,111,19.2,108.1,19.1z"/>
			<path id="XMLID_19_" fill="#FFFFFF" d="M97.9,16.5c-0.8-0.6-1.7-1-2.8-1c-2.5,0-4.4,2-4.4,4.4c0,0.3,0,0.6,0.1,0.8
				c-1.9,0.6-3.3,2.4-3.3,4.6c0,2.7,2.2,4.8,4.8,4.8c0.2,0,0.5,0,0.7,0h7.6V14.3C99.4,14.7,98.5,15.5,97.9,16.5z M98.4,22.9
				C98.4,22.9,98.4,22.9,98.4,22.9C98.4,22.9,98.4,22.9,98.4,22.9L98.4,22.9z"/>
		</g>
	</g>
</g>
<g id="XMLID_172_">
</g>
<g id="XMLID_173_">
</g>
<g id="XMLID_174_">
</g>
<g id="XMLID_175_">
</g>
<g id="XMLID_176_">
</g>
<g id="XMLID_177_">
</g>
</svg>
