<?xml version="1.0" encoding="utf-8"?>
<!-- Generator: Adobe Illustrator 19.0.0, SVG Export Plug-In . SVG Version: 6.00 Build 0)  -->
<svg version="1.1" id="Layer_1" xmlns="http://www.w3.org/2000/svg" xmlns:xlink="http://www.w3.org/1999/xlink" x="0px" y="0px"
	 viewBox="0 0 113.4 68" enable-background="new 0 0 113.4 68" xml:space="preserve">
<g id="XMLID_1_">
	<g id="XMLID_17_">
		<g id="XMLID_18_">
			<path id="XMLID_28_" fill="#DCDBDB" d="M47.7,33.3c-1.9-1.6-4.4-2.6-7.1-2.6c-6.2,0-11.3,5.1-11.3,11.3c0,0.7,0.1,1.4,0.2,2.1
				c-4.9,1.6-8.4,6.2-8.4,11.6C21,62.6,26.5,68,33.2,68c0.6,0,1.2,0,1.7-0.1h19.8V27.6C51.8,28.6,49.3,30.7,47.7,33.3z M48.9,49.7
				C48.9,49.7,48.9,49.7,48.9,49.7c0.1,0,0.1,0,0.1,0H48.9z"/>
			<path id="XMLID_27_" fill="#6BC289" d="M73.5,40.1c-0.3-7.5-6.4-13.4-13.9-13.4c-1.7,0-3.2,0.3-4.7,0.8c0,0,0,0-0.1,0v40.3h0.1
				h16.6c0.5,0.1,1,0.1,1.5,0.1c7.7,0,13.9-6.2,13.9-13.9C86.9,46.5,80.9,40.4,73.5,40.1z"/>
			<path id="XMLID_26_" fill="#DCDBDB" d="M33.4,8.5C33.2,3.8,29.3,0,24.5,0c-1.1,0-2.1,0.2-3,0.5c-0.3,0.1-0.6,0.2-0.8,0.4v25.4
				h0.8h10.6c0.3,0,0.6,0.1,1,0.1c4.9,0,8.9-4,8.9-8.9C42,12.6,38.2,8.7,33.4,8.5z"/>
			<path id="XMLID_23_" fill="#6BC289" d="M17,4.2c-1.2-1-2.8-1.6-4.6-1.6c-4,0-7.2,3.2-7.2,7.2c0,0.5,0,0.9,0.1,1.4
				c-3.1,1-5.4,3.9-5.4,7.4c0,4.3,3.5,7.8,7.8,7.8c0.4,0,0.7,0,1.1-0.1h11.8V0.9C19.2,1.6,17.9,2.8,17,4.2z M17.7,14.6
				C17.7,14.6,17.8,14.6,17.7,14.6C17.8,14.6,17.8,14.6,17.7,14.6L17.7,14.6z"/>
			<path id="XMLID_22_" fill="#6BC289" d="M108.1,19.1c-0.1-2.9-2.5-5.3-5.5-5.3c-0.7,0-1.3,0.1-1.9,0.3c-0.1,0-0.2,0.1-0.3,0.1
				v15.8h0.3h6.5c0.2,0,0.4,0,0.6,0c3,0,5.5-2.5,5.5-5.5C113.4,21.7,111,19.2,108.1,19.1z"/>
			<path id="XMLID_19_" fill="#DCDBDB" d="M97.9,16.5c-0.8-0.6-1.7-1-2.8-1c-2.5,0-4.4,2-4.4,4.4c0,0.3,0,0.6,0.1,0.8
				c-1.9,0.6-3.3,2.4-3.3,4.6c0,2.7,2.2,4.8,4.8,4.8c0.2,0,0.5,0,0.7,0h7.6V14.3C99.4,14.7,98.5,15.5,97.9,16.5z M98.4,22.9
				C98.4,22.9,98.4,22.9,98.4,22.9C98.4,22.9,98.4,22.9,98.4,22.9L98.4,22.9z"/>
		</g>
	</g>
</g>
<g id="XMLID_3_">
</g>
<g id="XMLID_4_">
</g>
<g id="XMLID_5_">
</g>
<g id="XMLID_6_">
</g>
<g id="XMLID_7_">
</g>
<g id="XMLID_8_">
</g>
</svg>
