<?xml version="1.0" encoding="utf-8"?>
<!-- Generator: Adobe Illustrator 19.0.0, SVG Export Plug-In . SVG Version: 6.00 Build 0)  -->
<svg version="1.1" id="Layer_1" xmlns="http://www.w3.org/2000/svg" xmlns:xlink="http://www.w3.org/1999/xlink" x="0px" y="0px"
	 viewBox="0 0 245.8 100.6" enable-background="new 0 0 245.8 100.6" xml:space="preserve">
<g id="XMLID_1_">
	<path id="XMLID_26_" fill="#FFE4C2" d="M21.5,5.9c0,0,12.3,9.6,14.5,11.9s6.7-2.7,11.3-3.4c4.7-0.7,12.4,2.6,16.9-2.2
		C68.8,7.3,81,0.1,85.4,1.9c4.4,1.8,8.1,15.9,5.5,22.7c-2.6,6.8-11.5,11.7-11.6,13.8c-0.1,2.1,4.4,30.5,3.3,36.8
		c-1.1,6.3-16.9,19.9-44.3,22.6C10.9,100.6,15,75.3,16,68.4c1-7,2.6-26.7,1.6-27.7c-1-1-10.4,0-11.9-4C4,32.7,0.3,7.6,21.5,5.9z"/>
	<path id="XMLID_25_" fill="#AC6C82" d="M47.6,38.7c0,0,2.6-4.3,4.3-3.7c1.7,0.6,5,3.3,5.6,11.3c0.6,8-1.4,12-9,9.7
		C41.1,53.8,47.1,39.5,47.6,38.7z"/>
	<path id="XMLID_24_" fill="#695A7E" d="M49.7,48.3c-0.1-5.1,0.4-11.4,4.2-11.9c0,0,0,0,0,0c-0.7-0.8-1.5-1.2-2-1.4
		c-1.7-0.6-4.3,3.7-4.3,3.7c-0.5,0.8-6.6,15.1,0.9,17.3c3.5,1,5.8,0.7,7.2-0.7C55.4,55.2,49.8,53.2,49.7,48.3z"/>
	<path id="XMLID_23_" fill="#FCBA7D" d="M81.1,78.5L79,78.1c0,0-18.6,14.7-39.8,7.8c-21.3-6.9-17-22.5-12.5-38.4
		c4.6-15.9-13.9-10.2-14.9-17.1c-1-6.9,1.9-24.2,19.1-8.6c4.5,4.1,5.2,1.4,24.4-6.8c0.1,0,0.2-0.1,0.3-0.1c-3-0.2-6-0.8-8.2-0.4
		c-4.7,0.7-9.2,5.8-11.3,3.4S21.5,5.9,21.5,5.9C0.3,7.6,4,32.7,5.6,36.7c1.6,4,10.9,3,11.9,4c1,1-0.6,20.7-1.6,27.7
		c-1,7-5.1,32.2,22.3,29.5C61.7,95.6,76.6,85.4,81.1,78.5z"/>
	<g id="XMLID_2_">
		<path id="XMLID_3_" fill="#364B67" d="M51.3,32.9c-1.2,0-2.4,0.5-3.2,1.5c-2.6,3.2-6.6,14.6-3.4,19.4c2.2,3.2,6.6,4,9,4.1
			c0.1,0,0.2,0,0.3,0c2,0,3.8-1.3,4.5-3.2c1-2.8,0.9-6.4,0.9-6.5C59.2,38.1,55.2,32.9,51.3,32.9z M55.5,53.6
			c-0.2,0.6-0.9,1.1-1.5,1.1l-0.1,0c-1.8-0.1-5.1-0.6-6.5-2.7c-2-3,1-13,3.2-15.6c0.3-0.3,0.6-0.4,0.7-0.4c1.7,0,4.8,3.6,5,12.3
			C56.2,48.4,56.3,51.5,55.5,53.6z"/>
		<path id="XMLID_19_" fill="#364B67" d="M36.4,57.1c-0.5-0.9-1.6-1.3-2.5-0.8c-0.9,0.5-1.3,1.6-0.8,2.5l4.6,9.1
			c0.3,0.5,0.2,1.2-0.2,1.6L36.3,71c-0.3,0.4-0.7,0.6-1.2,0.6c-0.5,0-0.9-0.2-1.2-0.5l-5-5.8c-0.7-0.8-1.8-0.9-2.6-0.2
			c-0.8,0.7-0.9,1.8-0.2,2.6l5,5.8c1,1.2,2.4,1.8,4,1.8c0,0,0.1,0,0.1,0c1.6,0,3-0.8,4-2l1.2-1.5c1.2-1.6,1.5-3.8,0.6-5.6L36.4,57.1
			z"/>
		<path id="XMLID_18_" fill="#364B67" d="M70.4,55.2c-0.6-0.2-1.3,0.1-1.6,0.7l-2.2,5.5c-0.2,0.5-0.7,0.8-1.3,0.7l-0.8-0.2
			c-0.6-0.1-0.9-0.7-0.8-1.3l1.6-7.9c0.1-0.7-0.3-1.3-1-1.4c-0.7-0.1-1.3,0.3-1.4,1l-1.6,7.9C61,62,62.1,63.9,64,64.3l0.8,0.2
			c0.3,0.1,0.5,0.1,0.8,0.1c1.4,0,2.8-0.9,3.3-2.3l2.2-5.5C71.3,56.2,71,55.5,70.4,55.2z"/>
		<path id="XMLID_4_" fill="#364B67" d="M92.1,4c-2.6-3.4-7-4.7-13-3.7C70.3,1.7,62.4,8.2,59,11.4c-1.7-0.7-3.7-1.1-6-1.1
			c-6.3,0-13.7,2.8-17.4,4.3c-5.9-7.3-11.8-11-17.5-11c-5.8,0-10.9,3.8-14.4,10.8c-3.6,7.2-5.3,17.8-1.8,22.5
			c3,4.1,7.5,6.4,12.6,6.4c-4.9,33.2-1.9,51.4,9.1,55.6c3.6,1.4,8.4,1.7,11.9,1.7c20.7,0,50-9.1,50.2-29.4
			c0.2-15.9-1.8-26.3-3.2-31.4c3.5-1.3,7.8-5.1,10.5-15.4C95.5,14.7,95.2,8.1,92.1,4z M87,22.8c-2.2,8.4-5.6,11.4-7.7,11.4
			c0,0-0.1,0-0.1,0c-1.1-0.4-2.2-0.1-3.1,0.8c-0.9,0.9-1,2.2-0.5,3.3c0,0.1,4.2,10.9,3.9,32.8c-0.2,15.2-25.7,23.3-44.1,23.3
			c-4.1,0-7.6-0.4-9.7-1.2c-7.8-3-9.5-22.3-4.6-52.9c0.2-1-0.2-2.1-1-2.8c-0.6-0.5-1.3-0.8-2-0.8c-0.3,0-0.6,0-0.9,0.1
			c0,0-1.1,0.3-2.6,0.3c-3.2,0-5.9-1.3-7.8-4c-1.2-1.6-1.2-9.1,2.4-16.1c1.4-2.8,4.4-7.4,8.9-7.4c4.1,0,8.9,3.6,14.1,10.5
			c0.9,1.2,2.5,1.6,3.8,0.9c0.1,0,9.9-4.7,17-4.7c2,0,3.5,0.4,4.4,1.2c1.2,1.1,3.1,1,4.3-0.2c0.1-0.1,9-9.4,18.5-11
			c1-0.2,1.9-0.2,2.7-0.2c3.2,0,4.1,1.2,4.5,1.6C88.3,9.1,89.6,12.9,87,22.8z"/>
		<path id="XMLID_15_" fill="#364B67" d="M37.3,44.5c0.9,0,1.7-1.7,1.8-4c-0.1,0-0.2,0.1-0.3,0.1c-0.8,0-1.5-1.1-1.5-2.5
			c0-1,0.4-1.9,0.9-2.3c-0.3-0.4-0.6-0.7-1-0.7c-1,0-1.9,2.1-1.9,4.7C35.4,42.4,36.2,44.5,37.3,44.5z"/>
		<path id="XMLID_14_" fill="#364B67" d="M63.1,34.6c-0.1,0.1-0.3,0.1-0.4,0.1c-0.8,0-1.5-1.1-1.5-2.5c0-1.2,0.5-2.1,1.1-2.4
			c-0.3-0.5-0.7-0.8-1.1-0.8c-1,0-1.9,2.1-1.9,4.7c0,2.6,0.8,4.7,1.9,4.7C62.2,38.4,63,36.8,63.1,34.6z"/>
	</g>
</g>
<g id="XMLID_5_">
	<path id="XMLID_6_" fill="#FFFFFF" d="M113.9,27.8c2.2,0.1,3.5,0.4,3.9,0.7l0.5,38.2l-0.6,0.4h-4.1l-0.6-0.4l0.5-38.6L113.9,27.8z"
		/>
	<path id="XMLID_8_" fill="#FFFFFF" d="M144.7,35.4h5.4c0.7,0,1.1,0.7,1.1,2l0.2,5c0.2,8.9-2.1,16.1-7.1,21.3c-2.7,2-5.4,3-8,3
		c-3.6,0-6.6-1.5-9.1-4.6c-1.7-1.8-2.9-6.3-3.7-13.4v-1.3c0.4-4,1-7.4,1.9-10.4h4.5l0.4,0.4c-0.9,5.3-1.2,8.7-1,10.2v2.2
		c0,6.8,2,10.2,5.9,10.2h2.6c3,0,5.3-2.7,6.7-8c0.5-1.8,0.7-4.6,0.7-8.4V43c-0.2-1.8-0.6-4.2-1.1-7.2L144.7,35.4z"/>
	<path id="XMLID_10_" fill="#FFFFFF" d="M180.4,30.1c1.1,0,1.7,0.9,1.7,2.6l0.7,25.5c0,11.4-0.8,18.4-2.4,21
		c-3.8,2.8-7.6,4.3-11.5,4.3c-3.9,0-7-1.5-9.1-4.6c-1.6-3.7-2.4-7.1-2.4-10.2c0.2-0.7,0.5-1.1,0.7-1.1h3.9l0.6,0.6v4.8
		c0,3.3,2.1,5.2,6.3,5.9h3.2c4.5-1,6.7-4,6.7-8.9l0.2-4.5V53.2c-0.2-1.2-0.7-1.9-1.7-1.9h-0.9c-0.7,0-1.6,0.9-3,2.8
		c-3.3,3-6.4,4.5-9.3,4.5h-0.4c-4.6,0-7.8-2.8-9.7-8.5l-0.4-2.8v-0.4c0-4.7,2.4-9.1,7.1-13.2c2.5-1.6,4.9-2.6,7.4-2.8
		c1.5,0,3.8,0.9,6.7,2.6h1.1c1.1,0,1.7-1,1.7-3C178.2,30.3,179.2,30.1,180.4,30.1z M157,43.9v4.6c0,2.1,1.5,4.1,4.6,5.8
		c0.5,0.2,1.2,0.4,2,0.4h2c3.8,0,6.7-2.6,8.7-7.8l0.2-2v-2.2c-0.8-4.8-3.2-7.2-7.2-7.2h-1.5c-3.7,0-6.6,2.5-8.7,7.4L157,43.9z"/>
	<path id="XMLID_13_" fill="#FFFFFF" d="M195.8,31.6h2.6c7.8,0.3,11.7,0.9,11.7,1.9v5.2c-0.5,3.8-2.3,7.3-5.3,10.7
		c-3.1,3.4-7.1,6.5-12.2,9.4l-0.2,0.7v0.9c0,1.1,1.8,1.5,5.4,1.1h2.4c2.9,0,6.5-0.7,10.8-2.2l0.2,0.6l0.4,6.5l-0.6,0.4h-4.5
		l-20.4-0.2l-0.4-0.6v-1.1c0-4.3,0.4-6.5,1.1-6.5c11.2-9,17.5-15.4,18.9-19v-0.9c0-1.6-3.2-2.1-9.6-1.6h-0.7c-2.8,0-5.7,0.4-8.5,1.3
		c-0.2,0-0.4-1.9-0.6-5.6l-0.2-0.2C186.1,31.9,189.3,31.6,195.8,31.6z"/>
	<path id="XMLID_28_" fill="#FFFFFF" d="M238.5,32.4h3.9c0.4,0,0.6,0.2,0.6,0.7l2.8,33.5l-0.2,0.2h-1.9c-1.6,0-2.4-0.6-2.4-1.9
		c0-4-0.6-5.9-1.9-5.9h-1.1c-0.6,0-1.8,1.2-3.5,3.5c-3.1,2.5-5.9,3.7-8.4,3.7c-5.8,0-10-3.9-12.5-11.7l-0.6-3.9
		c0-4.8,2-9.5,6.1-14.1c3.2-2.4,5.9-3.5,8.2-3.5c2.1,0,4.6,1,7.4,3h1.5c1,0,1.5-0.5,1.5-1.5v-1.7L238.5,32.4z M215.8,49.3v2
		c0,5.3,2.5,9,7.6,11.2l0.9,0.2h4.3c3,0,5.9-2.5,8.7-7.6c0.5-1.7,0.7-3,0.7-3.9v-4.1c0-4.3-2.4-7.7-7.1-10.2l-2.2-0.4h-2.8
		c-3.7,0-6.8,2.6-9.3,7.8C216.2,45.4,215.8,47.1,215.8,49.3z"/>
</g>
<g id="XMLID_43_">
</g>
<g id="XMLID_44_">
</g>
<g id="XMLID_45_">
</g>
<g id="XMLID_46_">
</g>
<g id="XMLID_47_">
</g>
<g id="XMLID_48_">
</g>
</svg>
