<?xml version="1.0" encoding="utf-8"?>
<!-- Generator: Adobe Illustrator 15.1.0, SVG Export Plug-In . SVG Version: 6.00 Build 0)  -->
<!DOCTYPE svg PUBLIC "-//W3C//DTD SVG 1.1//EN" "http://www.w3.org/Graphics/SVG/1.1/DTD/svg11.dtd">
<svg version="1.1" id="Layer_1" xmlns="http://www.w3.org/2000/svg" xmlns:xlink="http://www.w3.org/1999/xlink" x="0px" y="0px"
	 width="76.45px" height="15.138px" viewBox="0 0 76.45 15.138" enable-background="new 0 0 76.45 15.138" xml:space="preserve">
<g>
	<g>
		<path fill="#FFFFFF" d="M22.03,7.929h-4.446c0,1.736,0.921,2.732,2.402,2.732c0.511,0,1.034-0.102,1.494-0.318l0.052,0.434
			c-0.512,0.23-1.073,0.332-1.738,0.332c-1.481,0-2.747-1.008-2.747-3.154c0-1.752,1.138-3.258,2.837-3.258
			c1.443,0,2.185,1.238,2.185,2.682C22.068,7.533,22.055,7.75,22.03,7.929z M21.544,7.507c0-1.395-0.562-2.365-1.776-2.365
			c-1.264,0-2.095,1.113-2.158,2.365H21.544z"/>
		<path fill="#FFFFFF" d="M23.654,6.343c0-1.061,0.843-1.621,1.826-1.621c0.525,0,0.997,0.141,1.253,0.281l-0.052,0.434
			c-0.281-0.127-0.676-0.27-1.175-0.27c-0.677,0-1.316,0.357-1.316,1.061c0,0.729,0.307,1.074,1.087,1.406
			c1.162,0.498,1.686,0.971,1.686,1.725c0,1.125-0.881,1.75-2.082,1.75c-0.576,0-1.125-0.115-1.521-0.332l0.051-0.447
			c0.524,0.23,0.971,0.332,1.533,0.332c0.881,0,1.482-0.434,1.482-1.174c0-0.602-0.332-0.998-1.381-1.432
			C24.19,7.699,23.654,7.187,23.654,6.343z"/>
		<path fill="#FFFFFF" d="M28.802,10.982V1.783h0.512v9.199H28.802z"/>
	</g>
	<g>
		<g>
			<path fill="#FFFFFF" d="M38.166,8.273c0,1.936-1.639,2.967-3.94,2.967c-0.636,0-1.469-0.043-2.302-0.154V1.707
				c0.946-0.127,1.851-0.184,2.585-0.184c2.203,0,3.403,0.918,3.403,2.443c0,1.072-0.848,1.85-1.709,2.104v0.029
				C37.36,6.339,38.166,7.06,38.166,8.273z M34.522,5.662c1.073,0,1.666-0.523,1.666-1.441c0-0.932-0.606-1.441-1.666-1.441
				c-0.353,0-0.734,0.029-1.045,0.072v2.811H34.522z M33.477,6.861v3.08c0.381,0.027,0.763,0.041,1.087,0.041
				c1.13,0,1.879-0.479,1.879-1.539c0-1.018-0.692-1.582-1.991-1.582H33.477z"/>
			<path fill="#FFFFFF" d="M45.384,7.738c0,2.16-1.441,3.572-3.404,3.572s-3.404-1.412-3.404-3.572c0-2.162,1.441-3.574,3.404-3.574
				S45.384,5.576,45.384,7.738z M43.718,7.738c0-1.525-0.65-2.373-1.738-2.373s-1.738,0.848-1.738,2.373s0.65,2.373,1.738,2.373
				S43.718,9.263,43.718,7.738z"/>
			<path fill="#FFFFFF" d="M52.53,7.738c0,2.16-1.441,3.572-3.404,3.572s-3.402-1.412-3.402-3.572c0-2.162,1.439-3.574,3.402-3.574
				S52.53,5.576,52.53,7.738z M50.864,7.738c0-1.525-0.65-2.373-1.738-2.373S47.39,6.212,47.39,7.738s0.648,2.373,1.736,2.373
				S50.864,9.263,50.864,7.738z"/>
			<path fill="#FFFFFF" d="M56.569,7.185l3.107,3.984H57.7l-2.189-2.896h-0.043l-0.592,0.65v2.246h-1.555V1h1.555v6.229h0.041
				l2.471-2.922h2.006L56.569,7.185z"/>
			<path fill="#FFFFFF" d="M59.579,2.597c0-0.51,0.408-0.918,0.918-0.918c0.508,0,0.918,0.408,0.918,0.918
				c0,0.508-0.41,0.918-0.918,0.918C59.987,3.515,59.579,3.105,59.579,2.597z M59.72,4.306h1.553v6.863H59.72V4.306z"/>
			<path fill="#FFFFFF" d="M64.097,5.308c0.551-0.748,1.244-1.145,2.176-1.145c1.426,0,2.246,0.904,2.246,2.457v4.549h-1.553V7.384
				c0-1.314-0.172-2.02-1.244-2.02c-0.975,0-1.652,0.889-1.652,2.16v3.645h-1.553V4.306h1.512l0.041,1.002H64.097z"/>
			<path fill="#FFFFFF" d="M74.493,10.152h-0.027c-0.58,0.707-1.271,1.074-2.246,1.074c-1.822,0-2.98-1.398-2.98-3.418
				c0-2.105,1.229-3.645,3.064-3.645c0.961,0,1.611,0.354,2.162,1.074h0.027l0.041-0.932h1.512v5.93
				c0,2.699-1.596,3.842-3.939,3.842c-0.848,0-1.539-0.141-2.303-0.494l0.156-1.201c0.762,0.34,1.469,0.496,2.133,0.496
				c1.525,0,2.4-0.678,2.4-2.402V10.152z M70.905,7.695c0,1.426,0.637,2.33,1.822,2.33c1.088,0,1.766-0.834,1.766-2.09v-0.48
				c0-1.328-0.762-2.09-1.793-2.09C71.513,5.365,70.905,6.253,70.905,7.695z"/>
		</g>
	</g>
</g>
<g>
	<path fill="#FFFFFF" d="M14.323,6.982c-0.27-3.275-2.889-5.895-6.163-6.164C8.063,0.607,7.85,0.458,7.602,0.458
		c-3.905,0-7.08,3.176-7.08,7.08C0.522,7.787,0.669,8,0.88,8.097c0.271,3.273,2.889,5.893,6.164,6.162
		c0.096,0.211,0.309,0.359,0.558,0.359c3.904,0,7.079-3.176,7.079-7.08C14.681,7.291,14.534,7.078,14.323,6.982z M13.457,7.539
		c0,3.229-2.626,5.855-5.854,5.855c-0.229,0-0.43,0.125-0.535,0.312c-2.988-0.258-5.377-2.645-5.634-5.633
		c0.188-0.105,0.313-0.305,0.313-0.535c0-3.229,2.626-5.855,5.855-5.855c0.229,0,0.429-0.125,0.534-0.314
		c2.988,0.258,5.377,2.646,5.634,5.637C13.583,7.109,13.457,7.31,13.457,7.539z"/>
	<g>
		<g>
			<path fill="#FFFFFF" d="M14.07,7.816c-0.152,0-0.276-0.125-0.276-0.277c0-3.414-2.778-6.191-6.191-6.191
				c-0.153,0-0.277-0.123-0.277-0.277c0-0.15,0.124-0.273,0.277-0.273c3.718,0,6.743,3.023,6.743,6.742
				C14.345,7.691,14.222,7.816,14.07,7.816z"/>
		</g>
		<g>
			<path fill="#F18621" d="M7.602,14.619c-0.339,0-0.613-0.275-0.613-0.611c0-0.34,0.274-0.613,0.613-0.613
				c3.229,0,5.854-2.627,5.854-5.855c0-0.338,0.274-0.613,0.613-0.613c0.338,0,0.611,0.275,0.611,0.613
				C14.681,11.443,11.506,14.619,7.602,14.619z"/>
		</g>
		<g>
			<path fill="#FFFFFF" d="M7.602,14.281c-3.719,0-6.745-3.023-6.745-6.742c0-0.152,0.124-0.275,0.276-0.275
				c0.153,0,0.277,0.123,0.277,0.275c0,3.414,2.777,6.191,6.191,6.191c0.152,0,0.274,0.123,0.274,0.277
				C7.876,14.158,7.754,14.281,7.602,14.281z"/>
		</g>
		<g>
			<path fill="#DCDBDB" d="M1.133,8.152c-0.339,0-0.611-0.273-0.611-0.613c0-3.904,3.175-7.08,7.08-7.08
				c0.337,0,0.612,0.275,0.612,0.611c0,0.34-0.275,0.613-0.612,0.613c-3.229,0-5.855,2.627-5.855,5.855
				C1.747,7.878,1.472,8.152,1.133,8.152z"/>
		</g>
	</g>
	<g>
		<circle fill="#DCDBDB" cx="7.602" cy="7.591" r="4.922"/>
		<g>
			<path fill="#DCDBDB" d="M11.048,4.078l-6.96,6.959c0.894,0.912,2.138,1.477,3.514,1.477c2.719,0,4.922-2.203,4.922-4.922
				C12.524,6.214,11.958,4.972,11.048,4.078z"/>
		</g>
		<path fill="#F18621" d="M12.314,6.173c-0.607-2.027-2.487-3.504-4.712-3.504c-1.567,0-2.964,0.734-3.866,1.875l1.652,0.268h1.331
			l0.095,1.076H5.579L4.914,7.126v0.883l1.046,0.873l0.569,0.561v0.889L7.29,10.82l0.949-0.012L8.62,9.443V7.931l0.76-0.34
			l0.709-0.465l1.286-0.17L12.314,6.173z"/>
		<g>
			<path fill="#F18621" d="M7.602,2.669c-1.567,0-2.964,0.734-3.866,1.875l1.652,0.268h1.331l0.095,1.076H5.579L4.914,7.126v0.883
				l1.046,0.873l0.569,0.561v0.889L7.29,10.82l0.312-0.004V2.669L7.602,2.669z"/>
		</g>
	</g>
</g>
</svg>
