<?xml version="1.0" encoding="utf-8"?>
<!-- Generator: Adobe Illustrator 19.0.0, SVG Export Plug-In . SVG Version: 6.00 Build 0)  -->
<svg version="1.1" id="Layer_1" xmlns="http://www.w3.org/2000/svg" xmlns:xlink="http://www.w3.org/1999/xlink" x="0px" y="0px"
	 viewBox="0 0 295.2 103.4" enable-background="new 0 0 295.2 103.4" xml:space="preserve">
<g>
	<g>
		<path fill="#FFFFFF" d="M127.9,60.6V16.4h7v43c0,2.1,0.6,3.8,1.8,5c1.2,1.2,2.8,1.8,4.7,1.8v6.2C132.4,72.4,127.9,68.5,127.9,60.6
			z"/>
		<path fill="#FFFFFF" d="M156.1,32.4v25c0,6.1,2.6,9.1,7.9,9.1c2.3,0,4.4-0.7,6.3-2c1.9-1.3,3.2-2.8,3.8-4.6V32.4h7v39.2h-7v-5.4
			c-0.8,1.5-2.4,2.9-4.7,4.2c-2.4,1.3-4.7,1.9-6.9,1.9c-4.3,0-7.6-1.2-9.9-3.7c-2.3-2.5-3.4-6-3.4-10.5V32.4H156.1z"/>
		<path fill="#FFFFFF" d="M189,82.4l3.8-5.6c4.1,2.7,7.8,4.1,11.2,4.1c3.1,0,5.6-0.5,7.5-1.6c1.8-1.1,2.7-2.4,2.7-4
			c0-3.2-2.3-4.8-6.9-4.8c-0.8,0-2.2,0.2-4.2,0.6c-2.1,0.4-3.6,0.6-4.8,0.6c-5.6,0-8.3-2.1-8.3-6.3c0-1.3,0.7-2.5,2-3.5
			c1.3-1,2.9-1.8,4.9-2.3c-5.5-2.6-8.3-7.1-8.3-13.5c0-4.1,1.4-7.5,4.3-10.3c2.9-2.7,6.4-4.1,10.6-4.1c3.9,0,6.9,0.8,9,2.4l3.5-4.2
			l4.5,4.3l-4.2,3.1c1.8,2.3,2.7,5.3,2.7,9.1c0,4-1.2,7.3-3.7,10c-2.5,2.7-5.7,4.2-9.7,4.6l-5.8,0.6c-0.7,0.1-1.6,0.3-2.7,0.8
			c-1.1,0.5-1.7,1-1.7,1.8c0,1,1.2,1.5,3.6,1.5c1,0,2.7-0.2,4.9-0.6c2.2-0.4,3.9-0.6,4.9-0.6c3.9,0,6.9,0.9,9,2.8
			c2.2,1.8,3.2,4.4,3.2,7.7c0,3.6-1.6,6.5-4.9,8.8c-3.2,2.2-7.3,3.3-12.3,3.3c-2.5,0-5.2-0.5-8-1.4C193,84.8,190.7,83.7,189,82.4z
			 M203.8,37.3c-2.4,0-4.4,0.9-5.9,2.6c-1.5,1.7-2.3,3.8-2.3,6.2c0,2.7,0.7,5,2.2,6.8c1.5,1.8,3.5,2.7,6,2.7c2.5,0,4.4-0.9,5.8-2.6
			c1.4-1.7,2.1-4,2.1-6.9c0-2.4-0.8-4.5-2.3-6.2C207.9,38.2,206,37.3,203.8,37.3z"/>
		<path fill="#FFFFFF" d="M235.5,65.4h21.8v6.2h-32.7v-1.8l22.3-31.2H225v-6.2h32.1v2L235.5,65.4z"/>
		<path fill="#FFFFFF" d="M285.9,67.2c-2.8,3.5-7,5.2-12.8,5.2c-3.1,0-5.7-1.1-8-3.4c-2.3-2.2-3.4-5-3.4-8.3c0-4,1.7-7.3,5.2-10.1
			c3.5-2.7,7.9-4.1,13.3-4.1c1.5,0,3.1,0.3,5,1c0-6.3-2.8-9.5-8.5-9.5c-4.3,0-7.7,1.2-10,3.5l-2.9-5.8c1.3-1.1,3.1-2,5.5-2.8
			c2.3-0.8,4.6-1.2,6.7-1.2c5.7,0,9.8,1.3,12.4,3.9c2.6,2.6,3.9,6.7,3.9,12.3V62c0,3.4,1,5.7,3.1,6.9v3.5c-2.8,0-5-0.4-6.4-1.2
			C287.5,70.3,286.5,69,285.9,67.2z M285.2,52.4c-2.2-0.5-3.7-0.7-4.6-0.7c-3.5,0-6.4,0.9-8.6,2.7c-2.2,1.8-3.3,3.9-3.3,6.4
			c0,4.1,2.4,6.1,7.2,6.1c3.5,0,6.6-1.7,9.3-5V52.4z"/>
	</g>
	<g id="XMLID_1_">
		
			<ellipse id="XMLID_2_" transform="matrix(-0.6479 0.7617 -0.7617 -0.6479 114.2596 23.481)" fill="#FFFFFF" cx="51.7" cy="38.1" rx="11.5" ry="10.5"/>
		<path id="XMLID_10_" fill="#FFFFFF" d="M92.3,0H11.1C5,0,0,5,0,11.1v81.1c0,6.2,5,11.1,11.1,11.1h81.1c6.2,0,11.1-5,11.1-11.1
			V11.1C103.4,5,98.4,0,92.3,0z M44,61.9c1.1,0,2.9-0.2,5.4-0.6c2.4-0.4,4.2-0.6,5.4-0.6c4.2,0,7.5,1,9.9,3c2.4,2,3.5,4.8,3.5,8.4
			c0,3.9-1.8,7.1-5.3,9.6c-3.5,2.4-8,3.6-13.4,3.6c-2.8,0-5.7-0.5-8.8-1.5c-3.1-1-5.5-2.2-7.4-3.6l4.1-6.1c4.4,3,8.5,4.4,12.2,4.4
			c3.4,0,6.2-0.6,8.1-1.8c2-1.2,3-2.7,3-4.4c0-3.5-2.5-5.2-7.5-5.2c-0.9,0-2.4,0.2-4.6,0.6c-2.2,0.4-4,0.6-5.2,0.6
			c-6.1,0-9.1-2.3-9.1-6.9c0-1.4,0.7-2.7,2.1-3.8c1.1-0.9,2.5-1.6,4.1-2.1c-0.8-0.5-1.5-1-2.2-1.6c-8-6.8-8.4-19.4-0.9-28.1
			c7.5-8.8,19.9-10.4,27.9-3.6c8,6.8,8.4,19.4,0.9,28.1C60.5,57,52,59.5,44.8,57.5c-0.7,0.1-1.7,0.4-2.9,0.8
			c-1.3,0.5-1.9,1.1-1.9,1.9C40.1,61.4,41.4,61.9,44,61.9z"/>
	</g>
</g>
<g id="XMLID_19_">
</g>
<g id="XMLID_20_">
</g>
<g id="XMLID_21_">
</g>
<g id="XMLID_22_">
</g>
<g id="XMLID_23_">
</g>
<g id="XMLID_24_">
</g>
</svg>
