<?xml version="1.0" encoding="utf-8"?>
<!-- Generator: Adobe Illustrator 19.0.0, SVG Export Plug-In . SVG Version: 6.00 Build 0)  -->
<svg version="1.1" id="Layer_1" xmlns="http://www.w3.org/2000/svg" xmlns:xlink="http://www.w3.org/1999/xlink" x="0px" y="0px"
	 viewBox="0 0 103.4 103.4" enable-background="new 0 0 103.4 103.4" xml:space="preserve">
<g>
	<g id="XMLID_1_">
		
			<ellipse id="XMLID_2_" transform="matrix(-0.6479 0.7617 -0.7617 -0.6479 114.2596 23.481)" fill="#35495E" cx="51.7" cy="38.1" rx="11.5" ry="10.5"/>
		<path id="XMLID_10_" fill="#35495E" d="M92.3,0H11.1C5,0,0,5,0,11.1v81.1c0,6.2,5,11.1,11.1,11.1h81.1c6.2,0,11.1-5,11.1-11.1
			V11.1C103.4,5,98.4,0,92.3,0z M44,61.9c1.1,0,2.9-0.2,5.4-0.6c2.4-0.4,4.2-0.6,5.4-0.6c4.2,0,7.5,1,9.9,3c2.4,2,3.5,4.8,3.5,8.4
			c0,3.9-1.8,7.1-5.3,9.6c-3.5,2.4-8,3.6-13.4,3.6c-2.8,0-5.7-0.5-8.8-1.5c-3.1-1-5.5-2.2-7.4-3.6l4.1-6.1c4.4,3,8.5,4.4,12.2,4.4
			c3.4,0,6.2-0.6,8.1-1.8c2-1.2,3-2.7,3-4.4c0-3.5-2.5-5.2-7.5-5.2c-0.9,0-2.4,0.2-4.6,0.6c-2.2,0.4-4,0.6-5.2,0.6
			c-6.1,0-9.1-2.3-9.1-6.9c0-1.4,0.7-2.7,2.1-3.8c1.1-0.9,2.5-1.6,4.1-2.1c-0.8-0.5-1.5-1-2.2-1.6c-8-6.8-8.4-19.4-0.9-28.1
			c7.5-8.8,19.9-10.4,27.9-3.6c8,6.8,8.4,19.4,0.9,28.1C60.5,57,52,59.5,44.8,57.5c-0.7,0.1-1.7,0.4-2.9,0.8
			c-1.3,0.5-1.9,1.1-1.9,1.9C40.1,61.4,41.4,61.9,44,61.9z"/>
	</g>
</g>
<g id="XMLID_32_">
</g>
<g id="XMLID_33_">
</g>
<g id="XMLID_34_">
</g>
<g id="XMLID_35_">
</g>
<g id="XMLID_36_">
</g>
<g id="XMLID_37_">
</g>
</svg>
