<?xml version="1.0" encoding="utf-8"?>
<!-- Generator: Adobe Illustrator 18.1.0, SVG Export Plug-In . SVG Version: 6.00 Build 0)  -->
<svg version="1.1" xmlns="http://www.w3.org/2000/svg" xmlns:xlink="http://www.w3.org/1999/xlink" x="0px" y="0px"
	 viewBox="-636.1 589.9 603.9 166.1" enable-background="new -636.1 589.9 603.9 166.1" xml:space="preserve">
<g id="Layer_1">
	<circle fill="none" stroke="#58D68D" stroke-width="14" stroke-miterlimit="10" cx="-553" cy="672.8" r="75.8"/>
	<g>
		<g>
			<circle fill="#DCDBDB" cx="-553" cy="672.8" r="64.2"/>
			<g>
				<path fill="#58D68D" d="M-551.7,608.7l-3.9,128.3c16.7,0.7,33.5-5.1,46.6-17.4c25.8-24.3,27-64.9,2.7-90.7
					C-518.6,615.8-535.1,609.1-551.7,608.7z"/>
			</g>
			<path fill="#FFFFFF" d="M-521,617.3c-23.9-13.8-54.9-11-76.1,8.9c-14.9,14-21.6,33.5-19.9,52.4l18.1-12.2l12.7-11.9l10.5,9.3
				l-11.8,11.1l4.8,17.7l7.9,8.4l17.7-1l10.4,0.2l8,8.4l11.6-2.1l8.9-8.6l-8.6-16.4l-13.5-14.4l4.2-10l2.6-10.7l10.7-13.1
				L-521,617.3z"/>
			<g>
				<path fill="#FFFFFF" d="M-597,626.1c-14.9,14-21.6,33.5-19.9,52.4l18.1-12.2l12.7-11.9l10.5,9.3l-11.8,11.1l4.8,17.7l7.9,8.4
					l17.7-1l10.4,0.2l8,8.4l11.6-2.1l2.9-2.8L-597,626.1L-597,626.1z"/>
			</g>
		</g>
	</g>
	<g>
		<path fill="#FFFFFF" stroke="#FFFFFF" stroke-width="2" stroke-miterlimit="10" d="M-437.3,678c0.1,9.1,4.7,14.8,12.7,14.8
			c5.3,0,8.3-2.7,10.1-6.6c0.7-1.3,1.7-1.9,2.7-1.9c0.6,0,1,0.1,1.6,0.3c1.2,0.3,2.3,1.2,2.3,2.6c0,0.4-0.1,0.9-0.3,1.3
			c-2.4,4.9-6.7,9.8-16.3,9.8c-12.2,0-19.2-8.6-19.2-21.4c0-12.9,6.7-21.8,18.7-21.8c10.9,0,16.9,8.4,17.6,18.2c0,0.2,0,0.3,0,0.6
			c0,2.7-1.4,4.1-3.7,4.1L-437.3,678L-437.3,678z M-415.3,672.6c0.8,0,1.1-0.3,1.1-1c0-0.1,0-0.2,0-0.3c-0.9-5.3-4.1-10.7-10.9-10.7
			c-7.1,0-11,4.8-12,12L-415.3,672.6L-415.3,672.6z"/>
		<path fill="#FFFFFF" stroke="#FFFFFF" stroke-width="2" stroke-miterlimit="10" d="M-385.6,678.5c-9.1-1.8-12.9-5-12.9-12
			c0-6.8,5.8-11.3,15.4-11.3c8.2,0,13.5,3.5,15.4,8.9c0.1,0.3,0.1,0.6,0.1,0.9c0,1.4-1.2,2.4-2.6,2.8c-0.3,0.1-0.8,0.1-1.2,0.1
			c-1.3,0-2.7-0.6-3-2c-1-3.3-4.2-5-8.4-5c-6,0-8.9,2.4-8.9,5.5c0,3.4,1.4,4.9,7.6,6.2l4.6,1c9.6,2,13.5,4.8,13.5,12.6
			c0,7.1-6.1,12.4-16.5,12.4c-9.5,0-15.1-3.8-17-10.4c-0.1-0.3-0.1-0.7-0.1-1c0-1.5,1.2-2.5,2.7-2.8c0.3-0.1,0.8-0.1,1-0.1
			c1.4,0,2.8,0.6,3.2,2c1.3,4.3,4.4,6.4,10.2,6.4c5.9,0,9.8-2.6,9.8-6.4c0-3.7-1.9-5.7-8.6-7L-385.6,678.5z"/>
		<path fill="#FFFFFF" stroke="#FFFFFF" stroke-width="2" stroke-miterlimit="10" d="M-355.6,642.1c0-2,1.3-3,3.4-3c2,0,3.3,1,3.3,3
			v52.8c0,2-1.3,3-3.3,3c-2.1,0-3.4-1-3.4-3V642.1z"/>
		<path fill="#58D68D" stroke="#58D68D" stroke-width="6" stroke-miterlimit="10" d="M-320,697.3c-5.3,0-7.5-2.3-7.5-8v-41.8
			c0-5.7,2.2-8,7.5-8h17.5c10.7,0,16.8,5.1,16.8,14c0,7.1-3,11.2-9.4,13.3c7.5,1.6,11.4,6.4,11.4,14.5c0,10.1-6.6,16-18.1,16H-320z
			 M-302.8,664c6.4,0,10.1-3.5,10.1-9.5c0-5.8-3.5-8.8-10.2-8.8h-15.4c-1.4,0-2.1,0.9-2.1,2.4V664H-302.8L-302.8,664z M-320.5,688.7
			c0,1.7,0.8,2.4,2.4,2.4h15.7c7.5,0,11.5-3.7,11.5-10.5c0-7-4.1-10.6-11.6-10.6h-18L-320.5,688.7L-320.5,688.7z"/>
		<path fill="#58D68D" stroke="#58D68D" stroke-width="6" stroke-miterlimit="10" d="M-236.5,676.7c0,12.9-7.1,21.8-18.7,21.8
			c-12.2,0-19.4-8.6-19.4-21.8c0-12.9,7.2-21.5,19.2-21.5C-243.5,655.2-236.5,663.8-236.5,676.7z M-267.7,676.9
			c0,9.4,4.4,15.9,12.1,15.9c8.1,0,12.3-6.3,12.3-16.2c0-9.3-4.2-15.7-11.8-15.7C-263.1,660.9-267.7,667.1-267.7,676.9z"/>
		<path fill="#58D68D" stroke="#58D68D" stroke-width="6" stroke-miterlimit="10" d="M-189.6,676.7c0,12.9-7.1,21.8-18.7,21.8
			c-12.2,0-19.4-8.6-19.4-21.8c0-12.9,7.2-21.5,19.2-21.5C-196.6,655.2-189.6,663.8-189.6,676.7z M-220.9,676.9
			c0,9.4,4.4,15.9,12.1,15.9c8.1,0,12.3-6.3,12.3-16.2c0-9.3-4.2-15.7-11.8-15.7C-216.3,660.9-220.9,667.1-220.9,676.9z"/>
		<path fill="#58D68D" stroke="#58D68D" stroke-width="6" stroke-miterlimit="10" d="M-172.2,694.8c0,2-1.3,3-3.3,3
			c-2.1,0-3.3-1-3.3-3V642c0-1.9,1.3-2.9,3.4-2.9c1.9,0,3.3,0.8,3.3,2.8v32.9l18.1-18c0.7-0.7,1.5-1,2.2-1c1,0,1.9,0.3,2.4,1.1
			c0.7,0.8,1.1,1.7,1.1,2.4c0,0.8-0.3,1.4-1,2.1l-12.5,11.7l14.7,19.6c0.3,0.6,0.6,1,0.6,1.7c0,1.1-0.8,2.2-1.7,2.8
			c-0.6,0.3-1.2,0.6-2,0.6c-1,0-1.9-0.3-2.5-1.2l-13.8-19.3l-5.7,5.4C-172.2,682.7-172.2,694.8-172.2,694.8z"/>
		<path fill="#58D68D" stroke="#58D68D" stroke-width="6" stroke-miterlimit="10" d="M-128.7,644c0,2.9-2.2,5-5,5c-2.8,0-5-2.1-5-5
			c0-2.8,2.2-5,5-5C-131,639-128.7,641.2-128.7,644z M-137.1,658.7c0-1.9,1.2-2.9,3.3-2.9c2,0,3.4,1,3.4,2.9v36.1c0,2-1.4,3-3.4,3
			c-2.1,0-3.3-1-3.3-3V658.7z"/>
		<path fill="#58D68D" stroke="#58D68D" stroke-width="6" stroke-miterlimit="10" d="M-83.5,694.8c0,2-1.5,3-3.4,3c-2,0-3.4-1-3.4-3
			v-23.7c0-6.3-2.5-9.9-8.1-9.9c-4,0-7.3,1.8-9.9,5.3c-1.9,2.5-2.6,4.7-2.6,7.5v20.8c0,2-1.4,3-3.3,3c-2.1,0-3.4-1-3.4-3v-36.1
			c0-1.9,1.4-2.9,3.5-2.9c1.9,0,3.3,1,3.3,2.9v2c0,1-0.2,1.7-0.3,3.1c2.6-5.3,7.1-8.6,14.1-8.6c8.9,0,13.6,5.3,13.6,14.5V694.8z"/>
		<path fill="#58D68D" stroke="#58D68D" stroke-width="6" stroke-miterlimit="10" d="M-42.3,658.4c0-1.6,1-2.7,3.2-2.7
			c2,0,3.2,1,3.2,3v34.4c0,17.1-9,20.9-18.7,20.9c-8,0-13.1-2.7-16-6.3c-0.3-0.6-0.6-1-0.6-1.7c0-1,0.6-1.9,1.4-2.6
			c0.6-0.4,1.4-0.8,2.1-0.8c0.8,0,1.6,0.3,2.1,1c2.8,3.2,6,4.8,10.5,4.8c9.3,0,12.6-4.7,12.7-15.6c0-0.9,0.1-2.5,0.3-3.5
			c-2.4,4.7-6.7,8-13.2,8c-10.5,0-17.8-8.2-17.8-20.5c0-12.7,6.6-21.4,18.1-21.4c6.8,0,11,3.7,13.1,8.4c-0.1-0.8-0.3-2.2-0.3-3
			L-42.3,658.4L-42.3,658.4z M-66.2,676.6c0,9.4,5,15.1,12,15.1c7.5,0,12.2-6.4,12.2-15.6c0-8.9-4.5-15.2-12.1-15.2
			S-66.2,667.1-66.2,676.6z"/>
	</g>
</g>
<g id="Layer_2">
	<path fill="#FFFFFF" stroke="#FFFFFF" stroke-miterlimit="10" d="M-599.9,628.8c0,0,32.2-35.6,78.9-11.5"/>
</g>
</svg>
